<svg width="23" height="24" viewBox="0 0 23 24" fill="none" xmlns="http://www.w3.org/2000/svg">
<path d="M19.6086 23.5478H2.59766V14.1517L10.0555 7.60088L11.1031 6.68213L19.6086 14.1517V23.5478Z" fill="#E5734F"/>
<path d="M19.6086 23.7819H2.59766C2.46875 23.7819 2.36328 23.6765 2.36328 23.5476V14.1491C2.36328 14.0812 2.39141 14.0179 2.44297 13.9733L10.9484 6.50381C11.0375 6.42646 11.1687 6.42646 11.2578 6.50381L19.7633 13.9757C19.8148 14.0202 19.843 14.0835 19.843 14.1515V23.5499C19.843 23.6765 19.7375 23.7819 19.6086 23.7819ZM2.83203 23.3132H19.3742V14.2569L11.1031 6.99365L2.83203 14.2569V23.3132Z" fill="#545B61"/>
<path d="M0.234375 16.0971L11.1023 6.69629L0.234375 16.0971Z" fill="#E5734F"/>
<path d="M0.235513 16.3311C0.169888 16.3311 0.104263 16.303 0.0573876 16.2491C-0.0269874 16.1506 -0.0176124 16.003 0.0808251 15.9186L10.9511 6.51784C11.0496 6.43346 11.1972 6.44284 11.2816 6.54127C11.366 6.63971 11.3566 6.78737 11.2582 6.87174L0.387856 16.2749C0.343325 16.3124 0.289419 16.3311 0.235513 16.3311Z" fill="#545B61"/>
<path d="M21.8133 16.0971L10.9453 6.69629L21.8133 16.0971Z" fill="#E5734F"/>
<path d="M21.814 16.3311C21.7601 16.3311 21.7062 16.3124 21.6617 16.2749L10.7937 6.87174C10.6953 6.78737 10.6859 6.63971 10.7703 6.54127C10.8547 6.44284 11.0023 6.43346 11.1007 6.51784L21.9687 15.921C22.0672 16.0053 22.0765 16.153 21.9922 16.2514C21.9453 16.3053 21.8797 16.3311 21.814 16.3311Z" fill="#545B61"/>
<path d="M14.2883 23.5479H7.91797V16.4182C7.91797 16.3619 7.9625 16.3174 8.01875 16.3174H14.1898C14.2461 16.3174 14.2906 16.3619 14.2906 16.4182V23.5479H14.2883Z" fill="#0702AA"/>
<path d="M14.2883 23.7822H7.91797C7.78906 23.7822 7.68359 23.6768 7.68359 23.5479V16.4182C7.68359 16.233 7.83359 16.083 8.01875 16.083H14.1898C14.375 16.083 14.525 16.233 14.525 16.4182V23.5502C14.5227 23.6768 14.4172 23.7822 14.2883 23.7822ZM8.15234 23.3135H14.0539V16.5518H8.15234V23.3135Z" fill="#545B61"/>
<path d="M22.9945 10.2727C22.9945 14.2031 20.6813 15.8133 17.8266 15.8133C14.9719 15.8133 12.6562 14.2031 12.6562 10.2727C12.6562 6.34219 17.8242 0 17.8242 0C17.8242 0 22.9945 6.34219 22.9945 10.2727Z" fill="white"/>
<path d="M17.8242 17.5313C17.5453 17.5313 17.3203 17.3063 17.3203 17.0274V4.19775C17.3203 3.91885 17.5453 3.69385 17.8242 3.69385C18.1031 3.69385 18.3281 3.91885 18.3281 4.19775V17.0274C18.3281 17.3063 18.1031 17.5313 17.8242 17.5313Z" fill="white"/>
<path d="M22.1684 10.1836C22.1684 13.6102 20.223 15.0141 17.8254 15.0141C15.4277 15.0141 13.4824 13.6102 13.4824 10.1836C13.4824 6.75703 17.8254 1.23047 17.8254 1.23047C17.8254 1.23047 22.1684 6.75703 22.1684 10.1836Z" fill="#FF9153"/>
<path d="M17.8254 15.2485C16.4988 15.2485 15.3809 14.8337 14.5887 14.0509C13.698 13.1696 13.248 11.8688 13.248 10.186C13.248 8.72119 13.9887 6.74307 15.4535 4.30322C16.534 2.50088 17.6309 1.10166 17.6426 1.0876C17.6871 1.03135 17.7551 0.998535 17.8277 0.998535C17.9004 0.998535 17.9684 1.03135 18.0129 1.0876C18.0246 1.10166 19.1191 2.50088 20.202 4.30322C21.6645 6.74307 22.4074 8.72119 22.4074 10.186C22.4074 11.8688 21.9551 13.1696 21.0668 14.0509C20.2723 14.8337 19.152 15.2485 17.8254 15.2485ZM17.8254 1.61729C17.4715 2.08838 16.6582 3.20635 15.852 4.54697C14.8793 6.17353 13.7168 8.46807 13.7168 10.1837C13.7168 11.7376 14.1223 12.9259 14.9191 13.7157C15.6199 14.4095 16.6254 14.7774 17.8254 14.7774C19.0254 14.7774 20.0309 14.4095 20.7316 13.7157C21.5285 12.9235 21.934 11.7353 21.934 10.1837C21.934 8.46807 20.7738 6.17119 19.7988 4.54697C18.9949 3.20635 18.1816 2.08838 17.8254 1.61729Z" fill="#545B61"/>
<path d="M17.8242 16.8658C17.6953 16.8658 17.5898 16.7604 17.5898 16.6314V3.80176C17.5898 3.67285 17.6953 3.56738 17.8242 3.56738C17.9531 3.56738 18.0586 3.67285 18.0586 3.80176V16.6314C18.0586 16.7604 17.9531 16.8658 17.8242 16.8658Z" fill="#545B61"/>
<path d="M17.8247 9.471C17.7615 9.471 17.6958 9.44521 17.6513 9.39365L15.4154 6.90459C15.3286 6.8085 15.3357 6.66084 15.4341 6.57412C15.5302 6.4874 15.6779 6.49443 15.7646 6.59287L18.0005 9.08193C18.0872 9.17803 18.0802 9.32568 17.9818 9.4124C17.9372 9.45225 17.881 9.471 17.8247 9.471ZM17.8247 13.7202C17.7591 13.7202 17.6935 13.6921 17.6466 13.6382L14.5036 9.94678C14.4193 9.84834 14.431 9.70068 14.5294 9.61631C14.6279 9.53193 14.7755 9.54365 14.8599 9.64209L18.0029 13.3335C18.0872 13.4319 18.0755 13.5796 17.9771 13.664C17.9326 13.7015 17.8786 13.7202 17.8247 13.7202ZM17.8247 6.98193C17.7638 6.98193 17.7052 6.9585 17.6583 6.91396C17.5669 6.82256 17.5669 6.6749 17.6583 6.5835L19.1747 5.06709C19.2661 4.97568 19.4138 4.97568 19.5052 5.06709C19.5966 5.1585 19.5966 5.30615 19.5052 5.39756L17.9912 6.91396C17.9443 6.9585 17.8857 6.98193 17.8247 6.98193ZM17.9724 11.4468C17.9091 11.4468 17.8435 11.421 17.799 11.3694C17.7122 11.2733 17.7216 11.1257 17.8177 11.039L20.0279 9.0585C20.124 8.97178 20.2716 8.98115 20.3583 9.07725C20.4451 9.17334 20.4357 9.321 20.3396 9.40771L18.1294 11.3882C18.0849 11.4257 18.0286 11.4468 17.9724 11.4468Z" fill="#545B61"/>
</svg>
